{
	"asset":
	{
		"version": "2.0",
		"generator": "Unreal Engine 5.4.3"
	},
	"scene": 0,
	"accessors": [
		{
			"bufferView": 0,
			"count": 144,
			"type": "SCALAR",
			"componentType": 5121
		},
		{
			"bufferView": 1,
			"count": 54,
			"type": "VEC3",
			"componentType": 5126,
			"min": [ -0.5, -0.5, -0.5 ],
			"max": [ 0.5, 0.5, 0.5 ]
		},
		{
			"bufferView": 2,
			"count": 54,
			"type": "VEC3",
			"componentType": 5126
		},
		{
			"bufferView": 3,
			"count": 54,
			"type": "VEC4",
			"componentType": 5126
		},
		{
			"bufferView": 4,
			"count": 54,
			"type": "VEC2",
			"componentType": 5126
		},
		{
			"bufferView": 5,
			"count": 54,
			"type": "VEC2",
			"componentType": 5126
		},
		{
			"bufferView": 6,
			"count": 299928,
			"type": "SCALAR",
			"componentType": 5125
		},
		{
			"bufferView": 7,
			"count": 70503,
			"type": "VEC3",
			"componentType": 5126,
			"min": [ -0.634972572, -0.577145159, -0.970870256 ],
			"max": [ 0.635174096, 0.576964736, 0.542200089 ]
		},
		{
			"bufferView": 8,
			"count": 70503,
			"type": "VEC3",
			"componentType": 5126
		},
		{
			"bufferView": 9,
			"count": 70503,
			"type": "VEC4",
			"componentType": 5126
		},
		{
			"bufferView": 10,
			"count": 70503,
			"type": "VEC2",
			"componentType": 5126
		},
		{
			"bufferView": 11,
			"count": 70503,
			"type": "VEC2",
			"componentType": 5126
		}
	],
	"buffers": [
		{
			"uri": "ArmadilloVolume.bin",
			"byteLength": 5151048
		}
	],
	"bufferViews": [
		{
			"buffer": 0,
			"byteLength": 144,
			"target": 34963
		},
		{
			"buffer": 0,
			"byteLength": 648,
			"byteOffset": 144,
			"target": 34962
		},
		{
			"buffer": 0,
			"byteLength": 648,
			"byteOffset": 792,
			"target": 34962
		},
		{
			"buffer": 0,
			"byteLength": 864,
			"byteOffset": 1440,
			"target": 34962
		},
		{
			"buffer": 0,
			"byteLength": 432,
			"byteOffset": 2304,
			"target": 34962
		},
		{
			"buffer": 0,
			"byteLength": 432,
			"byteOffset": 2736,
			"target": 34962
		},
		{
			"buffer": 0,
			"byteLength": 1199712,
			"byteOffset": 3168,
			"target": 34963
		},
		{
			"buffer": 0,
			"byteLength": 846036,
			"byteOffset": 1202880,
			"target": 34962
		},
		{
			"buffer": 0,
			"byteLength": 846036,
			"byteOffset": 2048916,
			"target": 34962
		},
		{
			"buffer": 0,
			"byteLength": 1128048,
			"byteOffset": 2894952,
			"target": 34962
		},
		{
			"buffer": 0,
			"byteLength": 564024,
			"byteOffset": 4023000,
			"target": 34962
		},
		{
			"buffer": 0,
			"byteLength": 564024,
			"byteOffset": 4587024,
			"target": 34962
		}
	],
	"images": [
		{
			"uri": "T_GLTF_MI_CheckerGreen_BaseColor.png"
		},
		{
			"uri": "T_GLTF_MI_CheckerRed_BaseColor.png"
		}
	],
	"materials": [
		{
			"name": "MI_SolidWhite",
			"pbrMetallicRoughness":
			{
				"metallicFactor": 0
			}
		},
		{
			"name": "MI_GLTF_MI_CheckerGreen",
			"pbrMetallicRoughness":
			{
				"baseColorTexture":
				{
					"index": 0
				},
				"metallicFactor": 0
			}
		},
		{
			"name": "MI_GLTF_MI_CheckerRed",
			"pbrMetallicRoughness":
			{
				"baseColorTexture":
				{
					"index": 1
				},
				"metallicFactor": 0
			}
		},
		{
			"name": "MI_SolidGreen",
			"pbrMetallicRoughness":
			{
				"baseColorFactor": [ 0, 1, 0, 1 ],
				"metallicFactor": 0
			}
		},
		{
			"name": "M_Solid",
			"pbrMetallicRoughness":
			{
				"baseColorFactor": [ 1, 0, 0, 1 ],
				"metallicFactor": 0
			}
		},
		{
			"name": "MI_GLTF_M_Volume",
			"pbrMetallicRoughness":
			{
				"baseColorFactor": [                         0.859,
				0.892,
				0.890,1 ],
				"metallicFactor": 0,
				"roughnessFactor": 0
			},
			"alphaMode": "BLEND",
			"extensions":
			{
				"KHR_materials_ior":
				{
					"ior": 1
				},
				"KHR_materials_transmission":
				{
					"transmissionFactor": 0.5
				}
			}
		}
	],
	"meshes": [
		{
			"name": "Cube",
			"primitives": [
				{
					"attributes":
					{
						"POSITION": 1,
						"NORMAL": 2,
						"TANGENT": 3,
						"TEXCOORD_0": 4,
						"TEXCOORD_1": 5
					},
					"indices": 0,
					"material": 0
				}
			]
		},
		{
			"name": "Cube",
			"primitives": [
				{
					"attributes":
					{
						"POSITION": 1,
						"NORMAL": 2,
						"TANGENT": 3,
						"TEXCOORD_0": 4,
						"TEXCOORD_1": 5
					},
					"indices": 0,
					"material": 1
				}
			]
		},
		{
			"name": "Cube",
			"primitives": [
				{
					"attributes":
					{
						"POSITION": 1,
						"NORMAL": 2,
						"TANGENT": 3,
						"TEXCOORD_0": 4,
						"TEXCOORD_1": 5
					},
					"indices": 0,
					"material": 2
				}
			]
		},
		{
			"name": "Cube",
			"primitives": [
				{
					"attributes":
					{
						"POSITION": 1,
						"NORMAL": 2,
						"TANGENT": 3,
						"TEXCOORD_0": 4,
						"TEXCOORD_1": 5
					},
					"indices": 0,
					"material": 3
				}
			]
		},
		{
			"name": "Cube",
			"primitives": [
				{
					"attributes":
					{
						"POSITION": 1,
						"NORMAL": 2,
						"TANGENT": 3,
						"TEXCOORD_0": 4,
						"TEXCOORD_1": 5
					},
					"indices": 0,
					"material": 4
				}
			]
		},
		{
			"name": "armadillo",
			"primitives": [
				{
					"attributes":
					{
						"POSITION": 7,
						"NORMAL": 8,
						"TANGENT": 9,
						"TEXCOORD_0": 10,
						"TEXCOORD_1": 11
					},
					"indices": 6,
					"material": 5
				}
			]
		}
	],
	"nodes": [
		{
			"name": "Brush0"
		},
		{
			"name": "Floor",
			"scale": [ 3, 0.100000001, 3 ],
			"mesh": 0
		},
		{
			"name": "Ceiling",
			"translation": [ 0, 2, 0 ],
			"scale": [ 3, 0.100000001, 3 ],
			"mesh": 0
		},
		{
			"name": "Front",
			"translation": [ 0, 1, 1.5 ],
			"rotation": [ -0.707106829, -0, -0, 0.707106829 ],
			"scale": [ 3, 0.100000001, 2 ],
			"mesh": 1
		},
		{
			"name": "PointLight",
			"translation": [ 0, 1.79999995, 0 ],
			"children": [ 5 ]
		},
		{
			"name": "PointLight",
			"rotation": [ -0, -0.707106829, 0, 0.707106769 ],
			"extensions":
			{
				"KHR_lights_punctual":
				{
					"light": 0
				}
			}
		},
		{
			"name": "Rear",
			"translation": [ 0, 1, -1.5 ],
			"rotation": [ -0.707106829, -0, -0, 0.707106829 ],
			"scale": [ 3, 0.100000001, 2 ],
			"mesh": 2
		},
		{
			"name": "Right",
			"translation": [ 1.5, 1, 0 ],
			"rotation": [ -0.5, 0.5, 0.5, 0.5 ],
			"scale": [ 3, 0.100000001, 2 ],
			"mesh": 3
		},
		{
			"name": "Left",
			"translation": [ -1.5, 1, 0 ],
			"rotation": [ -0.5, 0.5, 0.5, 0.5 ],
			"scale": [ 3, 0.100000001, 2 ],
			"mesh": 4
		},
		{
			"name": "PointLight2",
			"translation": [ 0, 1, -1 ],
			"children": [ 10 ]
		},
		{
			"name": "PointLight2",
			"rotation": [ -0, -0.707106829, 0, 0.707106769 ],
			"extensions":
			{
				"KHR_lights_punctual":
				{
					"light": 1
				}
			}
		},
		{
			"name": "PointLight3",
			"translation": [ 0, 1, 1 ],
			"children": [ 12 ]
		},
		{
			"name": "PointLight3",
			"rotation": [ -0, -0.707106829, 0, 0.707106769 ],
			"extensions":
			{
				"KHR_lights_punctual":
				{
					"light": 2
				}
			}
		},
		{
			"name": "armadillo",
			"translation": [ 0, 0.599999964, 0.299999982 ],
			"rotation": [ 0.707106829, -0, 0, 0.707106829 ],
			"mesh": 5
		},
		{
			"name": "DefaultPhysicsVolume0"
		},
		{
			"name": "AbstractNavData-Default"
		}
	],
	"samplers": [
		{
			"minFilter": 9987,
			"magFilter": 9729
		}
	],
	"scenes": [
		{
			"name": "ArmadilloVolume",
			"nodes": [ 0, 1, 2, 3, 4, 6, 7, 8, 9, 11, 13, 14, 15 ]
		}
	],
	"textures": [
		{
			"name": "T_GLTF_MI_CheckerGreen_BaseColor",
			"sampler": 0,
			"source": 0
		},
		{
			"name": "T_GLTF_MI_CheckerRed_BaseColor",
			"sampler": 0,
			"source": 1
		}
	],
	"extensions":
	{
		"KHR_lights_punctual":
		{
			"lights": [
				{
					"name": "PointLight",
					"type": "point",
					"intensity": 2,
					"range": 10
				},
				{
					"name": "PointLight2",
					"type": "point",
					"range": 10
				},
				{
					"name": "PointLight3",
					"type": "point",
					"color": [ 0.5, 0.5, 0.5 ],
					"range": 10
				}
			]
		}
	},
	"extensionsUsed": [
		"KHR_materials_ior",
		"KHR_materials_transmission",
		"KHR_lights_punctual",
		"KHR_materials_volume"
	]
}